# 3ds Max Wavefront OBJ Exporter v0.99 - (c)2007 guruware
# File Created: 28.08.2025 20:58:32

mtllib 1111111.mtl

#
# object Object002
#

v  3.5656 6.3436 0.5502
v  4.2113 5.3394 0.5614
v  4.5754 5.4693 -0.3064
v  3.8236 6.5772 -0.3033
v  4.4326 4.1642 0.5646
v  4.8384 4.1642 -0.3064
v  1.4744 7.2332 0.5587
v  2.5760 6.9781 0.5462
v  2.5646 7.2570 -0.1895
v  1.3329 7.5686 -0.0620
v  1.4601 5.6482 0.8326
v  2.0382 5.5453 0.8309
v  2.5168 5.2460 0.8292
v  2.7987 4.7533 0.8308
v  2.8894 4.1658 0.8324
v  2.4144 5.1080 0.2389
v  2.6966 4.6122 0.2408
v  1.4578 5.4928 0.2417
v  1.9356 5.4071 0.2406
v  4.8384 4.1642 -0.9525
v  4.5754 5.4693 -0.9525
v  3.8507 6.5724 -0.9525
v  3.2031 7.4859 -0.9525
v  -0.6549 6.3754 0.5582
v  -0.9366 6.6210 -0.2928
v  -1.6538 5.4989 -0.3064
v  -1.2949 5.3661 0.5614
v  -1.9471 4.1816 -0.3064
v  -1.5426 4.1808 0.5646
v  -0.0411 7.2906 -0.1684
v  0.3279 6.9952 0.5602
v  0.8797 5.5521 0.8309
v  0.3932 5.2579 0.8292
v  0.0991 4.7664 0.8308
v  -0.0026 4.1761 0.8324
v  0.1983 4.6237 0.2408
v  0.4917 5.1186 0.2389
v  0.1211 4.1757 0.2419
v  0.9781 5.4128 0.2406
v  -1.6538 5.4989 -0.9525
v  -1.9471 4.1816 -0.9525
v  -0.9366 6.6210 -0.9525
v  -0.6905 7.2609 -0.9432
v  -0.7104 7.2090 -0.9525
v  2.7656 4.1661 0.2419
v  3.5749 2.0008 0.5582
v  3.8488 1.7593 -0.2928
v  4.5728 2.8618 -0.3064
v  4.2079 2.9925 0.5614
v  1.4367 1.1436 0.5648
v  1.4367 0.8057 -0.2253
v  2.7391 1.0569 -0.2523
v  2.5930 1.3693 0.5615
v  1.4367 2.7032 0.8326
v  2.0201 2.8012 0.8309
v  2.5051 3.0942 0.8292
v  2.7931 3.5808 0.8308
v  2.6919 3.7216 0.2408
v  2.4035 3.2313 0.2389
v  1.9186 2.9384 0.2406
v  1.4367 2.8568 0.2417
v  4.5728 2.8618 -0.9525
v  3.8488 1.7593 -0.9525
v  2.7391 1.0569 -0.9525
v  -0.7015 2.0008 0.5582
v  -1.3309 2.9961 0.5614
v  -1.6963 2.8649 -0.3064
v  -0.9754 1.7593 -0.2928
v  0.2804 1.3693 0.5615
v  0.1342 1.0569 -0.2523
v  0.8533 2.8013 0.8309
v  0.3698 3.0957 0.8292
v  0.0859 3.5864 0.8308
v  0.4720 3.2335 0.2389
v  0.1884 3.7279 0.2408
v  0.9550 2.9386 0.2406
v  -1.6963 2.8649 -0.9525
v  -0.9754 1.7593 -0.9525
v  0.1342 1.0569 -0.9525
v  -1.0045 1.7231 -0.8464
v  0.1197 0.9847 -0.8464
v  0.1197 0.9847 -0.2451
v  -1.0045 1.7231 -0.2451
v  1.4367 0.7119 -0.8464
v  1.4367 0.7119 -0.2451
v  2.7537 0.9847 -0.8464
v  2.7537 0.9847 -0.2451
v  3.8778 1.7231 -0.8464
v  3.8778 1.7231 -0.2451
v  0.0707 9.0128 -0.2003
v  1.2960 8.9097 -0.1964
v  1.7832 32.6400 -0.2226
v  0.5912 32.5246 -0.2196
v  0.9309 26.8665 -0.2295
v  2.0776 26.8950 -0.2361
v  0.0958 15.4886 -0.2610
v  0.1269 12.2510 -0.2509
v  1.3584 12.2789 -0.2576
v  1.3060 15.5308 -0.2665
v  1.4501 38.2731 -0.2798
v  0.2803 38.1447 -0.2817
v  0.9341 44.0268 -0.3209
v  -0.1600 43.9326 -0.3280
v  0.6322 47.2918 -0.3864
v  -0.5011 47.2761 -0.4069
v  0.0801 49.6362 -0.3721
v  -0.8421 49.5530 -0.3767
v  2.5791 8.9479 -0.2492
v  -0.4290 32.5862 -0.2146
v  -0.1457 26.8564 -0.2223
v  2.5743 12.4257 -0.2776
v  -0.7687 38.1687 -0.2817
v  -1.1731 43.7852 -0.3361
v  -1.4881 47.1413 -0.4176
v  -1.6863 49.3880 -0.3861
v  -0.4994 9.0060 -0.9525
v  -0.6620 7.5744 -0.9525
v  3.0705 9.0019 -0.9525
v  -0.0263 20.7001 -0.2547
v  -0.4865 20.5820 -0.9525
v  -0.4029 15.4418 -0.9525
v  2.4562 15.5779 -0.2733
v  3.0271 12.4885 -0.9525
v  2.9564 15.5309 -0.9525
v  -0.3725 12.2433 -0.9525
v  2.5602 26.8960 -0.9525
v  2.2858 32.6535 -0.9525
v  -1.1766 38.2185 -0.9525
v  -0.8869 33.0567 -0.9525
v  -0.8566 32.5901 -0.9458
v  1.8974 38.3730 -0.9525
v  -1.5924 43.6976 -0.9525
v  1.3734 44.0657 -0.9525
v  -1.8446 47.0346 -0.9525
v  1.0381 47.3463 -0.9525
v  -1.2866 52.3233 -0.3764
v  0.5031 49.8628 -0.9525
v  -0.8892 52.6486 -0.9525
v  -2.0061 49.4039 -0.9525
v  -2.3768 54.5674 -0.5104
v  -2.5944 55.1508 -0.9525
v  2.0279 4.8723 0.2391
v  2.1966 4.5017 0.2408
v  1.4525 5.0673 0.2410
v  1.7408 5.1051 0.2408
v  0.7046 4.5075 0.2408
v  0.8792 4.8766 0.2391
v  0.6583 4.1737 0.2417
v  1.1684 5.1063 0.2408
v  2.2373 4.1678 0.2417
v  2.1921 3.8347 0.2408
v  2.0179 3.4673 0.2391
v  1.7264 3.2383 0.2408
v  1.4374 3.2777 0.2410
v  0.8655 3.4712 0.2391
v  0.6978 3.8399 0.2408
v  1.1516 3.2410 0.2408
v  1.4497 4.8308 0.2394
v  1.4461 4.4839 0.2407
v  1.4431 4.1707 0.2415
v  1.4406 3.8579 0.2407
v  1.4384 3.5125 0.2394
v  -1.9965 51.9072 -0.3484
v  -2.2484 51.7720 -0.9525
v  1.1479 20.7698 -0.2617
v  2.2938 20.7625 -0.2631
v  -0.5982 26.8494 -0.9525
v  2.7527 20.6875 -0.9525
v  -0.7404 29.9593 -0.9525
v  3.5656 6.3436 -2.4553
v  3.8236 6.5772 -1.6018
v  4.5754 5.4693 -1.5987
v  4.2113 5.3394 -2.4665
v  4.8384 4.1642 -1.5987
v  4.4326 4.1642 -2.4697
v  1.4744 7.2332 -2.4638
v  1.3329 7.5686 -1.8431
v  2.5646 7.2570 -1.7156
v  2.5760 6.9781 -2.4513
v  1.4601 5.6482 -2.7376
v  2.0382 5.5453 -2.7360
v  2.5168 5.2460 -2.7343
v  2.7987 4.7533 -2.7359
v  2.8894 4.1658 -2.7375
v  2.6966 4.6122 -2.1459
v  2.4144 5.1080 -2.1440
v  1.9356 5.4071 -2.1457
v  1.4578 5.4928 -2.1467
v  -0.6549 6.3754 -2.4633
v  -1.2949 5.3661 -2.4665
v  -1.6538 5.4989 -1.5987
v  -0.9366 6.6210 -1.6122
v  -1.5426 4.1808 -2.4697
v  -1.9471 4.1816 -1.5987
v  0.3279 6.9952 -2.4653
v  -0.0411 7.2906 -1.7367
v  0.8797 5.5521 -2.7360
v  0.3932 5.2579 -2.7343
v  0.0991 4.7664 -2.7359
v  -0.0026 4.1761 -2.7375
v  0.4917 5.1186 -2.1440
v  0.1983 4.6237 -2.1459
v  0.1211 4.1757 -2.1470
v  0.9781 5.4128 -2.1457
v  -0.6905 7.2609 -0.9619
v  2.7656 4.1661 -2.1470
v  3.5749 2.0008 -2.4633
v  4.2079 2.9925 -2.4665
v  4.5728 2.8618 -1.5987
v  3.8488 1.7593 -1.6122
v  1.4367 1.1436 -2.4699
v  2.5930 1.3693 -2.4666
v  2.7391 1.0569 -1.6528
v  1.4367 0.8057 -1.6798
v  1.4367 2.7032 -2.7376
v  2.0201 2.8012 -2.7360
v  2.5051 3.0942 -2.7343
v  2.7931 3.5808 -2.7359
v  2.4035 3.2313 -2.1440
v  2.6919 3.7216 -2.1459
v  1.4367 2.8568 -2.1467
v  1.9186 2.9384 -2.1457
v  -0.7015 2.0008 -2.4633
v  -0.9754 1.7593 -1.6122
v  -1.6963 2.8649 -1.5987
v  -1.3309 2.9961 -2.4665
v  0.1342 1.0569 -1.6528
v  0.2804 1.3693 -2.4666
v  0.8533 2.8013 -2.7360
v  0.3698 3.0957 -2.7343
v  0.0859 3.5864 -2.7359
v  0.1884 3.7279 -2.1459
v  0.4720 3.2335 -2.1440
v  0.9550 2.9386 -2.1457
v  -1.0045 1.7231 -1.0586
v  -1.0045 1.7231 -1.6599
v  0.1197 0.9847 -1.6599
v  0.1197 0.9847 -1.0586
v  1.4367 0.7119 -1.6599
v  1.4367 0.7119 -1.0586
v  2.7537 0.9847 -1.6599
v  2.7537 0.9847 -1.0586
v  3.8778 1.7231 -1.6599
v  3.8778 1.7231 -1.0586
v  0.0707 9.0128 -1.7048
v  1.2960 8.9097 -1.7086
v  1.7832 32.6400 -1.6825
v  2.0776 26.8950 -1.6690
v  0.9309 26.8665 -1.6756
v  0.5912 32.5246 -1.6855
v  0.0958 15.4886 -1.6441
v  1.3060 15.5308 -1.6386
v  1.3584 12.2789 -1.6475
v  0.1269 12.2510 -1.6542
v  1.4501 38.2731 -1.6252
v  0.2803 38.1447 -1.6234
v  0.9341 44.0268 -1.5842
v  -0.1600 43.9326 -1.5771
v  0.6322 47.2918 -1.5187
v  -0.5011 47.2761 -1.4981
v  0.0801 49.6362 -1.5330
v  -0.8421 49.5530 -1.5284
v  2.5791 8.9479 -1.6559
v  -0.1457 26.8564 -1.6828
v  -0.4290 32.5862 -1.6905
v  2.5743 12.4257 -1.6275
v  -0.7687 38.1687 -1.6234
v  -1.1731 43.7852 -1.5690
v  -1.4881 47.1413 -1.4875
v  -1.6863 49.3880 -1.5190
v  -0.0263 20.7001 -1.6503
v  2.4562 15.5779 -1.6318
v  -0.8566 32.5901 -0.9593
v  -1.2866 52.3233 -1.5286
v  -2.3768 54.5674 -1.3946
v  2.1966 4.5017 -2.1459
v  2.0279 4.8723 -2.1442
v  1.7408 5.1051 -2.1458
v  1.4525 5.0673 -2.1460
v  0.8792 4.8766 -2.1442
v  0.7046 4.5075 -2.1459
v  0.6583 4.1737 -2.1468
v  1.1684 5.1063 -2.1458
v  2.2373 4.1678 -2.1468
v  2.0179 3.4673 -2.1442
v  2.1921 3.8347 -2.1459
v  1.4374 3.2777 -2.1460
v  1.7264 3.2383 -2.1458
v  0.6978 3.8399 -2.1459
v  0.8655 3.4712 -2.1442
v  1.1516 3.2410 -2.1458
v  1.4461 4.4839 -2.1458
v  1.4497 4.8308 -2.1445
v  1.4431 4.1707 -2.1466
v  1.4384 3.5125 -2.1445
v  1.4406 3.8579 -2.1458
v  -1.9965 51.9072 -1.5567
v  1.1479 20.7698 -1.6434
v  2.2938 20.7625 -1.6419
v  0.3208 -10.3925 -0.3308
v  0.2796 -12.3170 -0.3618
v  0.7649 -12.6496 -0.3222
v  -0.3521 -10.8011 -0.3214
v  -0.3380 -12.1299 -0.3124
v  1.7248 -13.6096 -0.3028
v  2.1745 -13.7839 -0.3028
v  2.4752 -10.5969 -0.3257
v  1.8624 -9.8467 -0.3368
v  1.3884 -9.1914 -0.3422
v  0.2574 -9.8693 -0.3342
v  1.3777 -7.8793 -0.3518
v  0.2846 -8.0028 -0.3455
v  1.2604 -6.1462 -0.3615
v  0.2456 -6.3951 -0.3549
v  0.2306 -7.0757 -0.3504
v  1.3079 -6.8463 -0.3610
v  1.2988 -4.7433 -0.3568
v  0.2663 -4.9183 -0.3525
v  1.3206 -3.4293 -0.3327
v  0.2508 -3.3483 -0.3291
v  1.3332 -2.1558 -0.3553
v  0.2407 -2.0006 -0.3426
v  1.3566 -1.0881 -0.3249
v  0.1839 -0.3883 -0.3232
v  2.4756 -10.3734 -0.1946
v  1.9881 -9.7269 -0.2002
v  0.2304 -12.3697 -0.4187
v  0.7251 -12.7059 -0.3391
v  -0.2329 -12.2917 -0.4717
v  -0.4808 -12.2964 -0.9372
v  -0.1943 -12.3803 -0.9372
v  0.1442 -10.3869 -0.4924
v  -0.1825 -10.6450 -0.5005
v  0.1353 -9.8778 -0.4946
v  1.5599 -9.1073 -0.2021
v  0.1556 -8.0073 -0.4975
v  1.5720 -7.9044 -0.2067
v  0.1447 -7.0825 -0.4978
v  1.5388 -6.7858 -0.2148
v  1.5236 -6.0252 -0.2187
v  0.1175 -4.9251 -0.5127
v  0.1535 -6.4004 -0.5044
v  1.4719 -4.7456 -0.2212
v  0.1121 -3.3504 -0.4976
v  1.4934 -3.4352 -0.1974
v  0.0656 -2.0209 -0.4910
v  1.5064 -2.1724 -0.2098
v  0.0546 -0.1616 -0.1071
v  1.4353 -1.0423 -0.2057
v  2.4735 -8.2134 -0.2076
v  2.0437 -8.1111 -0.2067
v  2.5288 -6.7696 -0.2332
v  2.1220 -5.7891 -0.2236
v  2.0497 -6.6952 -0.2205
v  2.0846 -4.8204 -0.2246
v  2.1081 -3.4798 -0.1996
v  2.1108 -2.1862 -0.2172
v  2.1090 -0.9046 -0.2066
v  2.0179 1.0648 -0.2234
v  -0.1115 1.4159 -0.1559
v  -0.2391 0.3850 -0.1774
v  -0.1495 -9.8618 -0.5013
v  -0.1131 -8.0812 -0.5051
v  -0.1087 -7.1356 -0.5056
v  -0.0830 -6.4412 -0.5100
v  -0.1039 -4.9598 -0.5238
v  -0.1699 -3.4251 -0.5078
v  -0.2565 -2.0439 -0.4980
v  -0.0431 -0.1294 -0.4760
v  -0.3603 0.3892 -0.5171
v  -0.0654 -12.4930 -0.5666
v  -0.0866 -12.5646 -0.9372
v  0.1353 -12.8160 -0.9372
v  0.1610 -12.6774 -0.5424
v  0.5600 -12.9002 -0.5484
v  0.5607 -13.0447 -0.9372
v  1.0477 -13.0593 -0.3889
v  2.4804 -13.6849 -0.3028
v  2.5775 -13.8188 -0.9372
v  2.6423 -10.5961 -0.9372
v  -0.4860 -10.8404 -0.9372
v  2.6421 -10.3734 -0.9372
v  -0.3666 -10.6828 -0.9372
v  2.6408 -8.2176 -0.9372
v  2.7097 -6.7319 -0.9372
v  2.2862 -5.7564 -0.9372
v  2.2531 -4.8231 -0.9372
v  2.2756 -3.4845 -0.9372
v  2.2792 -2.2042 -0.9372
v  2.2797 -0.8779 -0.9372
v  2.2116 1.1132 -0.9372
v  -0.3849 -9.8529 -0.9372
v  -0.3587 -8.0884 -0.9372
v  -0.3614 -7.1386 -0.9372
v  -0.3743 -6.4392 -0.9372
v  -0.3395 -4.9595 -0.9372
v  -0.3747 -3.4325 -0.9372
v  -0.3481 -2.0480 -0.9372
v  -0.4987 0.3163 -0.9372
v  -0.2939 1.4244 -0.5639
v  -0.4271 1.4332 -0.9372
v  1.6211 -13.7292 -0.9372
v  2.1671 -13.9163 -0.9372
v  1.0355 -13.1310 -0.9372
v  0.3208 -10.3925 -1.5435
v  0.7649 -12.6496 -1.5522
v  0.2796 -12.3170 -1.5126
v  -0.3521 -10.8011 -1.5530
v  -0.3380 -12.1299 -1.5620
v  1.7248 -13.6096 -1.5716
v  1.8624 -9.8467 -1.5375
v  2.4752 -10.5969 -1.5487
v  2.1745 -13.7839 -1.5716
v  1.3884 -9.1914 -1.5322
v  0.2574 -9.8693 -1.5402
v  1.3777 -7.8793 -1.5225
v  0.2846 -8.0028 -1.5289
v  1.2604 -6.1462 -1.5129
v  1.3079 -6.8463 -1.5134
v  0.2306 -7.0757 -1.5239
v  0.2456 -6.3951 -1.5194
v  1.2988 -4.7433 -1.5176
v  0.2663 -4.9183 -1.5218
v  1.3206 -3.4293 -1.5417
v  0.2508 -3.3483 -1.5452
v  1.3332 -2.1558 -1.5191
v  0.2407 -2.0006 -1.5317
v  1.3566 -1.0881 -1.5495
v  0.1839 -0.3883 -1.5511
v  1.9881 -9.7269 -1.6742
v  2.4756 -10.3734 -1.6798
v  0.7251 -12.7059 -1.5353
v  0.2304 -12.3697 -1.4556
v  -0.2329 -12.2917 -1.4026
v  -0.1825 -10.6450 -1.3739
v  0.1442 -10.3869 -1.3820
v  0.1353 -9.8778 -1.3797
v  1.5599 -9.1073 -1.6722
v  0.1556 -8.0073 -1.3768
v  1.5720 -7.9044 -1.6676
v  0.1447 -7.0825 -1.3765
v  1.5236 -6.0252 -1.6557
v  1.5388 -6.7858 -1.6595
v  0.1535 -6.4004 -1.3699
v  0.1175 -4.9251 -1.3616
v  1.4719 -4.7456 -1.6531
v  0.1121 -3.3504 -1.3767
v  1.4934 -3.4352 -1.6770
v  0.0656 -2.0209 -1.3833
v  1.5064 -2.1724 -1.6645
v  0.0546 -0.1616 -1.7672
v  1.4353 -1.0423 -1.6686
v  2.4735 -8.2134 -1.6667
v  2.0437 -8.1111 -1.6677
v  2.5288 -6.7696 -1.6411
v  2.0497 -6.6952 -1.6538
v  2.1220 -5.7891 -1.6508
v  2.0846 -4.8204 -1.6498
v  2.1081 -3.4798 -1.6747
v  2.1108 -2.1862 -1.6571
v  2.1090 -0.9046 -1.6678
v  2.0179 1.0648 -1.6509
v  -0.1115 1.4159 -1.7185
v  -0.2391 0.3850 -1.6969
v  -0.1495 -9.8618 -1.3730
v  -0.1131 -8.0812 -1.3692
v  -0.1087 -7.1356 -1.3687
v  -0.0830 -6.4412 -1.3643
v  -0.1039 -4.9598 -1.3506
v  -0.1699 -3.4251 -1.3666
v  -0.2565 -2.0439 -1.3764
v  -0.3603 0.3892 -1.3572
v  -0.0431 -0.1294 -1.3983
v  -0.0654 -12.4930 -1.3077
v  0.1610 -12.6774 -1.3320
v  0.5600 -12.9002 -1.3259
v  1.0477 -13.0593 -1.4854
v  2.4804 -13.6849 -1.5716
v  -0.2939 1.4244 -1.3104
v  2.1513 -5.7863 -0.0161
v  2.7468 -7.0616 -0.0772
v  2.7103 -5.8702 -0.0240
v  2.1603 -4.7224 0.0179
v  2.6890 -4.6877 0.0129
v  2.1283 -3.3807 0.0467
v  2.7249 -3.3235 0.0394
v  2.1221 -1.9634 0.0672
v  2.7350 -1.9269 0.0578
v  2.0514 -0.7110 0.0674
v  2.7281 -0.6479 0.0467
v  1.8360 0.3543 0.0457
v  3.0509 0.4979 0.0232
v  2.7454 -7.2770 -0.8958
v  2.7896 -5.8353 -0.8958
v  2.7657 -4.7275 -0.8958
v  2.7793 -3.3740 -0.8958
v  2.8056 -2.0558 -0.8958
v  2.8856 -0.7809 -0.8958
v  3.1921 0.3426 -0.8958
v  3.6825 1.8118 -0.0122
v  1.6498 0.9629 -0.0013
v  3.9450 1.8641 -0.8958
v  1.9477 -5.8034 -0.8958
v  2.0069 -4.8670 -0.8958
v  1.8151 -3.5568 -0.8958
v  1.7732 -2.2480 -0.8958
v  1.8241 -0.9402 -0.8958
v  1.7343 0.2145 -0.8958
v  1.5620 0.7826 -0.8958
v  2.1513 -5.7863 -1.7756
v  2.7103 -5.8702 -1.7677
v  2.7468 -7.0616 -1.7145
v  2.1603 -4.7224 -1.8096
v  2.6890 -4.6877 -1.8045
v  2.1283 -3.3807 -1.8384
v  2.7249 -3.3235 -1.8311
v  2.1221 -1.9634 -1.8589
v  2.7350 -1.9269 -1.8495
v  2.0514 -0.7110 -1.8591
v  2.7281 -0.6479 -1.8384
v  1.8360 0.3543 -1.8374
v  3.0509 0.4979 -1.8149
v  1.6498 0.9629 -1.7904
v  3.6825 1.8118 -1.7795
# 524 vertices

vn 0.4675 0.4769 0.7443
vn 0.6004 0.2449 0.7613
vn 0.9035 0.3778 0.2025
vn 0.6625 0.7237 0.1935
vn 0.6401 -0.0011 0.7683
vn 0.9776 -0.0011 0.2107
vn 0.0282 0.6228 0.7819
vn 0.2774 0.6262 0.7286
vn 0.4704 0.5959 0.6509
vn 0.0106 0.5172 0.8558
vn -0.0031 -0.4842 0.8749
vn -0.1687 -0.4319 0.8860
vn -0.3155 -0.3105 0.8967
vn -0.4550 -0.1692 0.8743
vn -0.5093 0.0025 0.8606
vn -0.4763 -0.4497 0.7556
vn -0.6279 -0.2033 0.7512
vn -0.0038 -0.6500 0.7599
vn -0.2253 -0.6065 0.7625
vn 1.0000 -0.0012 -0.0000
vn 0.9249 0.3802 0.0000
vn 0.8261 0.5635 0.0000
vn 0.9383 0.3457 -0.0000
vn -0.4614 0.4669 0.7544
vn -0.7262 0.6593 0.1948
vn -0.9052 0.3744 0.2010
vn -0.6000 0.2467 0.7611
vn -0.9776 0.0148 0.2101
vn -0.6411 0.0096 0.7674
vn -0.5176 0.4812 0.7075
vn -0.2123 0.5726 0.7918
vn 0.1651 -0.4401 0.8826
vn 0.3140 -0.3194 0.8941
vn 0.4511 -0.1773 0.8747
vn 0.5086 -0.0053 0.8610
vn 0.6246 -0.2143 0.7509
vn 0.4694 -0.4576 0.7552
vn 0.6667 -0.0072 0.7453
vn 0.2176 -0.6097 0.7622
vn -0.9234 0.3838 0.0000
vn -0.9999 0.0154 0.0000
vn -0.8925 0.4510 0.0000
vn -0.7615 0.1392 0.6330
vn -0.9333 0.3590 0.0000
vn -0.6665 0.0036 0.7455
vn 0.4652 -0.4666 0.7522
vn 0.6915 -0.6957 0.1946
vn 0.9060 -0.3715 0.2028
vn 0.6008 -0.2425 0.7617
vn 0.0000 -0.6528 0.7575
vn 0.0000 -0.9194 0.3932
vn 0.4244 -0.8667 0.2620
vn 0.2447 -0.6078 0.7555
vn 0.0000 0.4873 0.8732
vn -0.1666 0.4410 0.8819
vn -0.3142 0.3171 0.8948
vn -0.4523 0.1743 0.8747
vn -0.6255 0.2113 0.7511
vn -0.4697 0.4573 0.7552
vn -0.2179 0.6098 0.7620
vn 0.0002 0.6505 0.7595
vn 0.9245 -0.3812 -0.0000
vn 0.7012 -0.7130 -0.0000
vn 0.5349 -0.8449 -0.0000
vn -0.4664 -0.4658 0.7520
vn -0.6032 -0.2373 0.7615
vn -0.9089 -0.3643 0.2030
vn -0.6926 -0.6946 0.1946
vn -0.2447 -0.6078 0.7555
vn -0.4244 -0.8667 0.2620
vn 0.1671 0.4399 0.8824
vn 0.3151 0.3142 0.8956
vn 0.4533 0.1691 0.8752
vn 0.4737 0.4535 0.7549
vn 0.6287 0.2028 0.7507
vn 0.2195 0.6095 0.7618
vn -0.9275 -0.3737 -0.0000
vn -0.7023 -0.7118 -0.0000
vn -0.5349 -0.8449 -0.0000
vn -0.5490 -0.8358 -0.0000
vn -0.3827 -0.9239 -0.0000
vn -0.0000 -1.0000 -0.0000
vn 0.0000 -1.0000 0.0000
vn 0.3827 -0.9239 -0.0000
vn 0.5490 -0.8358 -0.0000
vn -0.4402 0.0333 0.8973
vn 0.0204 0.0606 0.9980
vn 0.4656 0.0293 0.8845
vn 0.0036 0.0045 1.0000
vn 0.0063 -0.0032 1.0000
vn 0.4738 0.0176 0.8804
vn -0.4519 -0.0067 0.8921
vn -0.4536 0.0101 0.8912
vn 0.0102 0.0107 0.9999
vn 0.0052 0.0010 1.0000
vn 0.4705 0.0422 0.8814
vn -0.0012 0.0095 1.0000
vn 0.4560 0.0536 0.8883
vn -0.0090 0.0151 0.9998
vn 0.4578 0.0819 0.8853
vn -0.0148 0.0026 0.9999
vn 0.4259 0.1499 0.8923
vn -0.0069 -0.0076 0.9999
vn 0.4825 0.0172 0.8757
vn -0.4928 -0.0222 0.8699
vn -0.4794 -0.0194 0.8774
vn 0.4816 0.0119 0.8763
vn -0.4899 -0.0229 0.8715
vn -0.4654 -0.0238 0.8848
vn -0.4736 -0.0386 0.8799
vn -0.5024 -0.0652 0.8622
vn -0.9970 0.0773 0.0000
vn -0.9936 0.1128 0.0000
vn 0.9988 0.0490 0.0000
vn -0.4708 -0.0129 0.8822
vn -0.9999 -0.0170 0.0000
vn -0.9999 -0.0128 -0.0000
vn 0.4537 0.0141 0.8911
vn 0.9998 0.0181 0.0000
vn 0.9995 0.0310 0.0000
vn -0.9999 0.0151 0.0000
vn 0.9992 0.0392 -0.0000
vn 0.9983 0.0576 -0.0000
vn -0.9978 -0.0665 -0.0000
vn -0.9984 -0.0560 -0.0000
vn -0.8625 -0.0441 0.5041
vn 0.9968 0.0803 0.0000
vn -0.9971 -0.0755 -0.0000
vn 0.9953 0.0966 0.0000
vn -0.9974 -0.0720 -0.0000
vn 0.9880 0.1546 -0.0000
vn 0.3680 0.2079 0.9063
vn 0.9415 0.3371 -0.0000
vn 0.8602 0.5099 -0.0000
vn -0.9963 -0.0856 -0.0000
vn -0.0726 0.5003 0.8628
vn -0.3449 0.9386 0.0000
vn 0.0005 0.0006 1.0000
vn -0.0005 0.0034 1.0000
vn -0.0000 -0.0043 1.0000
vn 0.0018 -0.0025 1.0000
vn 0.0005 0.0034 1.0000
vn -0.0005 0.0006 1.0000
vn 0.0003 -0.0000 1.0000
vn -0.0019 -0.0025 1.0000
vn -0.0003 -0.0000 1.0000
vn -0.0005 -0.0034 1.0000
vn 0.0005 -0.0006 1.0000
vn 0.0018 0.0025 1.0000
vn 0.0000 0.0043 1.0000
vn -0.0005 -0.0005 1.0000
vn 0.0005 -0.0034 1.0000
vn -0.0018 0.0026 1.0000
vn -0.0000 -0.0011 1.0000
vn 0.0000 0.0031 1.0000
vn 0.0000 -0.0000 1.0000
vn -0.0000 -0.0031 1.0000
vn 0.0000 0.0011 1.0000
vn -0.5216 -0.0556 0.8514
vn -0.9948 -0.1018 -0.0000
vn 0.0037 -0.0030 1.0000
vn 0.4743 0.0130 0.8803
vn -0.9995 -0.0318 -0.0000
vn 0.9994 0.0355 -0.0000
vn -0.9990 -0.0457 -0.0000
vn 0.4675 0.4769 -0.7443
vn 0.6625 0.7237 -0.1935
vn 0.9035 0.3778 -0.2025
vn 0.6004 0.2449 -0.7613
vn 0.9776 -0.0011 -0.2107
vn 0.6401 -0.0011 -0.7683
vn 0.0282 0.6228 -0.7819
vn 0.0106 0.5172 -0.8558
vn 0.4704 0.5959 -0.6509
vn 0.2774 0.6262 -0.7286
vn -0.0031 -0.4842 -0.8749
vn -0.1687 -0.4319 -0.8860
vn -0.3155 -0.3105 -0.8967
vn -0.4550 -0.1692 -0.8743
vn -0.5093 0.0025 -0.8606
vn -0.6279 -0.2033 -0.7512
vn -0.4763 -0.4497 -0.7556
vn -0.2253 -0.6065 -0.7625
vn -0.0038 -0.6500 -0.7599
vn -0.4614 0.4669 -0.7544
vn -0.6000 0.2467 -0.7611
vn -0.9052 0.3744 -0.2010
vn -0.7262 0.6593 -0.1948
vn -0.6411 0.0096 -0.7674
vn -0.9776 0.0148 -0.2101
vn -0.2123 0.5726 -0.7918
vn -0.5176 0.4812 -0.7075
vn 0.1651 -0.4401 -0.8826
vn 0.3140 -0.3194 -0.8941
vn 0.4511 -0.1773 -0.8747
vn 0.5086 -0.0053 -0.8610
vn 0.4694 -0.4576 -0.7552
vn 0.6246 -0.2143 -0.7509
vn 0.6667 -0.0072 -0.7453
vn 0.2176 -0.6097 -0.7622
vn -0.7615 0.1392 -0.6330
vn -0.6665 0.0036 -0.7455
vn 0.4652 -0.4666 -0.7522
vn 0.6008 -0.2425 -0.7617
vn 0.9060 -0.3715 -0.2028
vn 0.6915 -0.6957 -0.1946
vn -0.0000 -0.6528 -0.7575
vn 0.2447 -0.6078 -0.7555
vn 0.4244 -0.8667 -0.2620
vn 0.0000 -0.9194 -0.3932
vn 0.0000 0.4873 -0.8732
vn -0.1666 0.4410 -0.8819
vn -0.3142 0.3171 -0.8948
vn -0.4523 0.1743 -0.8747
vn -0.4697 0.4573 -0.7552
vn -0.6255 0.2113 -0.7511
vn 0.0002 0.6505 -0.7595
vn -0.2179 0.6098 -0.7620
vn -0.4664 -0.4658 -0.7520
vn -0.6926 -0.6946 -0.1946
vn -0.9089 -0.3643 -0.2030
vn -0.6032 -0.2373 -0.7615
vn -0.4244 -0.8667 -0.2620
vn -0.2447 -0.6078 -0.7555
vn 0.1671 0.4399 -0.8824
vn 0.3151 0.3142 -0.8956
vn 0.4533 0.1691 -0.8752
vn 0.6287 0.2028 -0.7507
vn 0.4737 0.4535 -0.7549
vn 0.2195 0.6095 -0.7618
vn 0.0000 -1.0000 -0.0000
vn -0.4402 0.0333 -0.8973
vn 0.0204 0.0606 -0.9980
vn 0.4656 0.0293 -0.8845
vn 0.4738 0.0176 -0.8804
vn 0.0063 -0.0032 -1.0000
vn 0.0036 0.0045 -1.0000
vn -0.4519 -0.0067 -0.8921
vn 0.0052 0.0010 -1.0000
vn 0.0102 0.0107 -0.9999
vn -0.4536 0.0101 -0.8911
vn 0.4705 0.0422 -0.8814
vn -0.0012 0.0095 -1.0000
vn 0.4560 0.0536 -0.8883
vn -0.0090 0.0151 -0.9998
vn 0.4578 0.0819 -0.8853
vn -0.0148 0.0026 -0.9999
vn 0.4259 0.1499 -0.8923
vn -0.0069 -0.0076 -0.9999
vn 0.4825 0.0172 -0.8757
vn -0.4794 -0.0194 -0.8774
vn -0.4928 -0.0222 -0.8699
vn 0.4816 0.0119 -0.8763
vn -0.4899 -0.0229 -0.8715
vn -0.4654 -0.0238 -0.8848
vn -0.4736 -0.0386 -0.8799
vn -0.5024 -0.0652 -0.8622
vn -0.4708 -0.0129 -0.8822
vn 0.4537 0.0141 -0.8911
vn -0.8625 -0.0441 -0.5041
vn 0.3680 0.2079 -0.9063
vn -0.0726 0.5003 -0.8628
vn -0.0005 0.0034 -1.0000
vn 0.0005 0.0006 -1.0000
vn 0.0018 -0.0025 -1.0000
vn -0.0000 -0.0043 -1.0000
vn -0.0005 0.0006 -1.0000
vn 0.0005 0.0034 -1.0000
vn 0.0003 -0.0000 -1.0000
vn -0.0019 -0.0025 -1.0000
vn -0.0003 -0.0000 -1.0000
vn 0.0005 -0.0006 -1.0000
vn -0.0005 -0.0034 -1.0000
vn 0.0000 0.0043 -1.0000
vn 0.0018 0.0025 -1.0000
vn 0.0005 -0.0034 -1.0000
vn -0.0005 -0.0005 -1.0000
vn -0.0018 0.0026 -1.0000
vn 0.0000 0.0031 -1.0000
vn -0.0000 -0.0011 -1.0000
vn 0.0000 -0.0000 -1.0000
vn 0.0000 0.0011 -1.0000
vn -0.0000 -0.0031 -1.0000
vn -0.5216 -0.0556 -0.8514
vn 0.0037 -0.0030 -1.0000
vn 0.4743 0.0130 -0.8803
vn -0.2286 0.0933 0.9690
vn -0.1584 -0.2850 0.9454
vn -0.1073 -0.0779 0.9912
vn -0.6333 0.3618 0.6841
vn -0.5604 -0.3102 0.7679
vn -0.3347 -0.5580 0.7593
vn -0.0188 -0.6977 0.7162
vn 0.5956 -0.1293 0.7928
vn -0.2589 -0.1897 0.9471
vn -0.2412 -0.0764 0.9675
vn -0.4567 -0.0186 0.8894
vn -0.3192 -0.0052 0.9477
vn -0.4097 -0.0038 0.9122
vn -0.2325 -0.0085 0.9726
vn -0.4848 0.0112 0.8745
vn -0.5036 -0.0036 0.8639
vn -0.2705 -0.0137 0.9626
vn -0.3237 -0.0036 0.9461
vn -0.3951 -0.0065 0.9186
vn -0.3262 0.0037 0.9453
vn -0.4244 -0.0055 0.9055
vn -0.3340 0.0010 0.9426
vn -0.3127 -0.0448 0.9488
vn -0.4828 -0.2761 0.8311
vn 0.2612 -0.4303 0.8641
vn 0.3732 -0.3315 0.8665
vn -0.2741 -0.1911 0.9425
vn -0.2725 -0.4579 0.8462
vn -0.2883 -0.3178 0.9033
vn -0.5895 -0.7150 0.3758
vn -0.7853 -0.6192 -0.0000
vn -0.6497 -0.7602 -0.0000
vn -0.4217 0.2552 0.8701
vn -0.7145 0.6036 0.3538
vn -0.4511 0.0011 0.8925
vn -0.3559 -0.0937 0.9298
vn -0.4355 0.0006 0.9002
vn -0.3103 0.0029 0.9506
vn -0.5098 0.0048 0.8603
vn -0.2736 -0.0007 0.9619
vn -0.2388 -0.0044 0.9711
vn -0.4191 -0.0080 0.9079
vn -0.5024 0.0037 0.8646
vn -0.3300 -0.0121 0.9439
vn -0.4456 -0.0149 0.8951
vn -0.3230 0.0006 0.9464
vn -0.3545 -0.0223 0.9348
vn -0.3300 -0.0049 0.9440
vn -0.4865 -0.2426 0.8394
vn -0.2680 -0.2097 0.9403
vn 0.6190 -0.0026 0.7854
vn 0.0033 0.0067 1.0000
vn 0.6593 0.1213 0.7420
vn 0.5649 0.1226 0.8160
vn 0.0185 0.0054 0.9998
vn 0.6172 -0.0000 0.7868
vn 0.6240 -0.0085 0.7814
vn 0.6287 0.0020 0.7776
vn 0.6251 0.0153 0.7804
vn 0.5988 0.0410 0.7998
vn -0.5278 0.0476 0.8480
vn -0.7125 -0.1141 0.6923
vn -0.5193 0.0177 0.8544
vn -0.5136 0.0076 0.8580
vn -0.5142 0.0134 0.8576
vn -0.4723 0.0123 0.8814
vn -0.5216 -0.0148 0.8530
vn -0.5440 -0.0362 0.8383
vn -0.6390 -0.0334 0.7685
vn -0.6987 -0.2171 0.6816
vn -0.9181 -0.0718 0.3898
vn -0.6527 -0.7070 0.2721
vn -0.8060 -0.5919 -0.0000
vn -0.6080 -0.7939 -0.0000
vn -0.4321 -0.6039 0.6698
vn -0.4054 -0.7390 0.5381
vn -0.3198 -0.9475 -0.0000
vn -0.5450 -0.7264 0.4187
vn 0.6034 -0.4056 0.6866
vn 0.7640 -0.6453 -0.0000
vn 1.0000 -0.0097 0.0000
vn -0.9560 0.2935 -0.0000
vn 1.0000 0.0006 -0.0000
vn -0.9362 0.3515 -0.0000
vn 0.9997 -0.0229 0.0000
vn 0.9834 0.1814 0.0000
vn 0.9752 0.2214 0.0000
vn 1.0000 0.0094 -0.0000
vn 1.0000 -0.0098 -0.0000
vn 1.0000 -0.0016 -0.0000
vn 0.9999 0.0173 0.0000
vn 0.9994 0.0342 -0.0000
vn -1.0000 -0.0034 0.0000
vn -1.0000 0.0061 -0.0000
vn -0.9999 -0.0107 -0.0000
vn -1.0000 0.0025 -0.0000
vn -1.0000 0.0002 -0.0000
vn -1.0000 -0.0021 0.0000
vn -0.9998 -0.0221 -0.0000
vn -1.0000 -0.0063 0.0000
vn -0.9251 0.0762 0.3719
vn -0.9980 0.0640 -0.0000
vn -0.5381 -0.8429 -0.0000
vn -0.0487 -0.9988 -0.0000
vn -0.4761 -0.8794 -0.0000
vn -0.2286 0.0933 -0.9690
vn -0.1073 -0.0779 -0.9912
vn -0.1584 -0.2850 -0.9454
vn -0.6333 0.3618 -0.6841
vn -0.5604 -0.3102 -0.7679
vn -0.3347 -0.5580 -0.7593
vn -0.2589 -0.1897 -0.9471
vn 0.5956 -0.1293 -0.7928
vn -0.0188 -0.6977 -0.7162
vn -0.2412 -0.0764 -0.9675
vn -0.4567 -0.0186 -0.8894
vn -0.3192 -0.0052 -0.9477
vn -0.4097 -0.0038 -0.9122
vn -0.2325 -0.0085 -0.9726
vn -0.2705 -0.0137 -0.9626
vn -0.5036 -0.0036 -0.8639
vn -0.4848 0.0112 -0.8745
vn -0.3237 -0.0036 -0.9461
vn -0.3951 -0.0065 -0.9186
vn -0.3262 0.0037 -0.9453
vn -0.4244 -0.0055 -0.9055
vn -0.3340 0.0010 -0.9426
vn -0.3127 -0.0448 -0.9488
vn -0.4828 -0.2761 -0.8311
vn 0.2612 -0.4303 -0.8641
vn -0.2741 -0.1911 -0.9425
vn 0.3732 -0.3315 -0.8665
vn -0.2883 -0.3178 -0.9033
vn -0.2725 -0.4579 -0.8462
vn -0.5895 -0.7150 -0.3758
vn -0.7145 0.6036 -0.3538
vn -0.4217 0.2552 -0.8701
vn -0.4511 0.0011 -0.8925
vn -0.3559 -0.0937 -0.9298
vn -0.4355 0.0006 -0.9002
vn -0.3103 0.0029 -0.9506
vn -0.5098 0.0048 -0.8603
vn -0.2388 -0.0044 -0.9711
vn -0.2736 -0.0007 -0.9619
vn -0.5024 0.0037 -0.8646
vn -0.4191 -0.0080 -0.9079
vn -0.3300 -0.0121 -0.9439
vn -0.4456 -0.0149 -0.8951
vn -0.3230 0.0006 -0.9464
vn -0.3545 -0.0223 -0.9348
vn -0.3300 -0.0049 -0.9440
vn -0.4864 -0.2426 -0.8394
vn -0.2680 -0.2097 -0.9403
vn 0.6189 -0.0026 -0.7854
vn 0.0033 0.0067 -1.0000
vn 0.6593 0.1213 -0.7420
vn 0.0185 0.0054 -0.9998
vn 0.5649 0.1226 -0.8160
vn 0.6172 -0.0000 -0.7868
vn 0.6240 -0.0085 -0.7814
vn 0.6287 0.0020 -0.7776
vn 0.6251 0.0153 -0.7804
vn 0.5988 0.0410 -0.7998
vn -0.5278 0.0476 -0.8480
vn -0.7125 -0.1141 -0.6923
vn -0.5193 0.0177 -0.8544
vn -0.5136 0.0076 -0.8580
vn -0.5142 0.0134 -0.8576
vn -0.4723 0.0123 -0.8814
vn -0.5216 -0.0148 -0.8530
vn -0.5440 -0.0362 -0.8383
vn -0.6390 -0.0334 -0.7685
vn -0.9181 -0.0718 -0.3898
vn -0.6987 -0.2171 -0.6816
vn -0.6527 -0.7070 -0.2721
vn -0.4321 -0.6039 -0.6698
vn -0.4054 -0.7390 -0.5381
vn -0.5450 -0.7264 -0.4187
vn 0.6034 -0.4056 -0.6866
vn -0.9251 0.0762 -0.3719
vn -0.6488 -0.1689 0.7420
vn 0.2216 -0.7610 0.6097
vn 0.6744 -0.0121 0.7383
vn -0.6356 -0.0268 0.7716
vn 0.6742 -0.0220 0.7382
vn -0.5798 -0.0222 0.8145
vn 0.6922 -0.0229 0.7213
vn -0.5557 -0.0253 0.8310
vn 0.6852 -0.0015 0.7283
vn -0.5724 -0.0701 0.8170
vn 0.6096 -0.0761 0.7891
vn -0.6185 -0.1187 0.7768
vn 0.5799 -0.2030 0.7890
vn 0.2010 -0.9796 -0.0000
vn 1.0000 -0.0039 -0.0000
vn 1.0000 0.0062 0.0000
vn 0.9999 -0.0148 0.0000
vn 0.9992 -0.0395 0.0000
vn 0.9876 -0.1567 0.0000
vn 0.9371 -0.3491 0.0000
vn 0.7540 -0.3474 0.5575
vn -0.6038 -0.1239 0.7875
vn 0.8963 -0.4435 -0.0000
vn -0.9777 -0.2100 -0.0000
vn -0.9995 -0.0312 -0.0000
vn -0.9956 -0.0937 0.0000
vn -1.0000 -0.0026 -0.0000
vn -0.9999 -0.0110 0.0000
vn -0.9843 -0.1765 0.0000
vn -0.9569 -0.2903 0.0000
vn -0.6488 -0.1689 -0.7420
vn 0.6744 -0.0121 -0.7383
vn 0.2216 -0.7610 -0.6097
vn -0.6356 -0.0268 -0.7716
vn 0.6742 -0.0220 -0.7382
vn -0.5798 -0.0222 -0.8145
vn 0.6922 -0.0229 -0.7213
vn -0.5557 -0.0253 -0.8310
vn 0.6852 -0.0015 -0.7283
vn -0.5724 -0.0701 -0.8170
vn 0.6096 -0.0761 -0.7891
vn -0.6185 -0.1187 -0.7768
vn 0.5799 -0.2030 -0.7890
vn -0.6038 -0.1239 -0.7875
vn 0.7540 -0.3474 -0.5575
# 511 vertex normals

o Object002
g Object002
usemtl wire_177148027
s 1
f 1//1 2//2 3//3 4//4 
f 2//2 5//5 6//6 3//3 
f 7//7 8//8 9//9 10//10 
f 8//8 1//1 4//4 9//9 
f 11//11 12//12 8//8 7//7 
f 13//13 14//14 2//2 1//1 
f 14//14 15//15 5//5 2//2 
f 13//13 1//1 8//8 12//12 
s off
f 14//14 13//13 16//16 17//17 
f 12//12 11//11 18//18 19//19 
f 13//13 12//12 19//19 16//16 
f 3//3 6//6 20//20 21//21 
f 4//4 3//3 21//21 22//22 
f 9//9 4//4 22//22 23//23 
s 1
f 24//24 25//25 26//26 27//27 
f 27//27 26//26 28//28 29//29 
f 7//7 10//10 30//30 31//31 
f 31//31 30//30 25//25 24//24 
f 11//11 7//7 31//31 32//32 
f 33//33 24//24 27//27 34//34 
f 34//34 27//27 29//29 35//35 
f 33//33 32//32 31//31 24//24 
s off
f 34//34 36//36 37//37 33//33 
f 35//35 38//38 36//36 34//34 
f 32//32 39//39 18//18 11//11 
f 33//33 37//37 39//39 32//32 
f 26//26 40//40 41//41 28//28 
f 25//25 42//42 40//40 26//26 
f 30//30 43//43 44//44 42//42 25//25 
f 15//15 14//14 17//17 45//45 
s 1
f 46//46 47//47 48//48 49//49 
f 49//49 48//48 6//6 5//5 
f 50//50 51//51 52//52 53//53 
f 53//53 52//52 47//47 46//46 
f 54//54 50//50 53//53 55//55 
f 56//56 46//46 49//49 57//57 
f 57//57 49//49 5//5 15//15 
f 56//56 55//55 53//53 46//46 
s off
f 57//57 58//58 59//59 56//56 
f 55//55 60//60 61//61 54//54 
f 56//56 59//59 60//60 55//55 
f 48//48 62//62 20//20 6//6 
f 47//47 63//63 62//62 48//48 
f 52//52 64//64 63//63 47//47 
s 1
f 65//65 66//66 67//67 68//68 
f 66//66 29//29 28//28 67//67 
f 50//50 69//69 70//70 51//51 
f 69//69 65//65 68//68 70//70 
f 54//54 71//71 69//69 50//50 
f 72//72 73//73 66//66 65//65 
f 73//73 35//35 29//29 66//66 
f 72//72 65//65 69//69 71//71 
s off
f 73//73 72//72 74//74 75//75 
f 35//35 73//73 75//75 38//38 
f 71//71 54//54 61//61 76//76 
f 72//72 71//71 76//76 74//74 
f 67//67 28//28 41//41 77//77 
f 68//68 67//67 77//77 78//78 
f 70//70 68//68 78//78 79//79 
f 15//15 45//45 58//58 57//57 
s 2
f 80//80 81//81 82//81 83//80 
f 81//81 84//82 85//83 82//81 
f 84//82 86//84 87//84 85//83 
f 86//84 88//85 89//85 87//84 
s 1
f 90//86 30//30 10//10 91//87 
s off
f 92//88 93//89 94//90 95//91 
f 96//92 97//93 98//94 99//95 
f 100//96 101//97 93//89 92//88 
f 102//98 103//99 101//97 100//96 
f 104//100 105//101 103//99 102//98 
f 106//102 107//103 105//101 104//100 
s 1
f 9//9 108//104 91//87 10//10 
s off
f 93//89 109//105 110//106 94//90 
f 91//87 108//104 111//107 98//94 
f 101//97 112//108 109//105 93//89 
f 103//99 113//109 112//108 101//97 
f 105//101 114//110 113//109 103//99 
f 115//111 114//110 105//101 107//103 
f 30//30 90//86 116//112 117//113 43//43 
f 108//104 9//9 23//23 118//114 
f 96//92 119//115 120//116 121//117 
f 122//118 111//107 123//119 124//120 
f 90//86 97//93 125//121 116//112 
f 92//88 95//91 126//122 127//123 
f 109//105 112//108 128//124 129//125 130//126 
f 100//96 92//88 127//123 131//127 
f 112//108 113//109 132//128 128//124 
f 102//98 100//96 131//127 133//129 
f 113//109 114//110 134//130 132//128 
f 104//100 102//98 133//129 135//131 
f 136//132 106//102 137//133 138//134 
f 114//110 115//111 139//135 134//130 
f 106//102 104//100 135//131 137//133 
f 140//136 136//132 138//134 141//137 
f 97//93 90//86 91//87 98//94 
f 111//107 122//118 99//95 98//94 
f 111//107 108//104 118//114 123//119 
f 97//93 96//92 121//117 125//121 
f 17//17 16//16 142//138 143//139 
f 19//19 18//18 144//140 145//141 
f 16//16 19//19 145//141 142//138 
f 37//37 36//36 146//142 147//143 
f 36//36 38//38 148//144 146//142 
f 18//18 39//39 149//145 144//140 
f 39//39 37//37 147//143 149//145 
f 45//45 17//17 143//139 150//146 
f 59//59 58//58 151//147 152//148 
f 61//61 60//60 153//149 154//150 
f 60//60 59//59 152//148 153//149 
f 75//75 74//74 155//151 156//152 
f 38//38 75//75 156//152 148//144 
f 76//76 61//61 154//150 157//153 
f 74//74 76//76 157//153 155//151 
f 58//58 45//45 150//146 151//147 
f 142//138 158//154 159//155 143//139 
f 145//141 144//140 158//154 142//138 
f 143//139 159//155 160//156 150//146 
f 151//147 161//157 162//158 152//148 
f 152//148 162//158 154//150 153//149 
f 150//146 160//156 161//157 151//147 
f 146//142 159//155 158//154 147//143 
f 148//144 160//156 159//155 146//142 
f 147//143 158//154 144//140 149//145 
f 155//151 162//158 161//157 156//152 
f 156//152 161//157 160//156 148//144 
f 157//153 154//150 162//158 155//151 
f 106//102 136//132 107//103 
f 107//103 136//132 163//159 115//111 
f 115//111 163//159 164//160 139//135 
f 136//132 140//136 163//159 
f 163//159 140//136 141//137 164//160 
f 165//161 99//95 122//118 166//162 
f 119//115 96//92 99//95 165//161 
f 119//115 110//106 167//163 120//116 
f 166//162 122//118 124//120 168//164 
f 94//90 165//161 166//162 95//91 
f 110//106 119//115 165//161 94//90 
f 95//91 166//162 168//164 126//122 
f 110//106 109//105 130//126 169//165 167//163 
s 1
f 170//166 171//167 172//168 173//169 
f 173//169 172//168 174//170 175//171 
f 176//172 177//173 178//174 179//175 
f 179//175 178//174 171//167 170//166 
f 180//176 176//172 179//175 181//177 
f 182//178 170//166 173//169 183//179 
f 183//179 173//169 175//171 184//180 
f 182//178 181//177 179//175 170//166 
s off
f 183//179 185//181 186//182 182//178 
f 181//177 187//183 188//184 180//176 
f 182//178 186//182 187//183 181//177 
f 172//168 21//21 20//20 174//170 
f 171//167 22//22 21//21 172//168 
f 178//174 23//23 22//22 171//167 
s 1
f 189//185 190//186 191//187 192//188 
f 190//186 193//189 194//190 191//187 
f 176//172 195//191 196//192 177//173 
f 195//191 189//185 192//188 196//192 
f 180//176 197//193 195//191 176//172 
f 198//194 199//195 190//186 189//185 
f 199//195 200//196 193//189 190//186 
f 198//194 189//185 195//191 197//193 
s off
f 199//195 198//194 201//197 202//198 
f 200//196 199//195 202//198 203//199 
f 197//193 180//176 188//184 204//200 
f 198//194 197//193 204//200 201//197 
f 191//187 194//190 41//41 40//40 
f 192//188 191//187 40//40 42//42 
f 196//192 192//188 42//42 44//44 205//201 
f 184//180 206//202 185//181 183//179 
s 1
f 207//203 208//204 209//205 210//206 
f 208//204 175//171 174//170 209//205 
f 211//207 212//208 213//209 214//210 
f 212//208 207//203 210//206 213//209 
f 215//211 216//212 212//208 211//207 
f 217//213 218//214 208//204 207//203 
f 218//214 184//180 175//171 208//204 
f 217//213 207//203 212//208 216//212 
s off
f 218//214 217//213 219//215 220//216 
f 216//212 215//211 221//217 222//218 
f 217//213 216//212 222//218 219//215 
f 209//205 174//170 20//20 62//62 
f 210//206 209//205 62//62 63//63 
f 213//209 210//206 63//63 64//64 
s 1
f 223//219 224//220 225//221 226//222 
f 226//222 225//221 194//190 193//189 
f 211//207 214//210 227//223 228//224 
f 228//224 227//223 224//220 223//219 
f 215//211 211//207 228//224 229//225 
f 230//226 223//219 226//222 231//227 
f 231//227 226//222 193//189 200//196 
f 230//226 229//225 228//224 223//219 
s off
f 231//227 232//228 233//229 230//226 
f 200//196 203//199 232//228 231//227 
f 229//225 234//230 221//217 215//211 
f 230//226 233//229 234//230 229//225 
f 225//221 77//77 41//41 194//190 
f 224//220 78//78 77//77 225//221 
f 227//223 79//79 78//78 224//220 
f 184//180 218//214 220//216 206//202 
s 2
f 235//80 236//80 237//81 238//81 
f 238//81 237//81 239//231 240//82 
f 240//82 239//231 241//84 242//84 
f 242//84 241//84 243//85 244//85 
s 1
f 245//232 246//233 177//173 196//192 
s off
f 247//234 248//235 249//236 250//237 
f 251//238 252//239 253//240 254//241 
f 255//242 247//234 250//237 256//243 
f 257//244 255//242 256//243 258//245 
f 259//246 257//244 258//245 260//247 
f 261//248 259//246 260//247 262//249 
s 1
f 178//174 177//173 246//233 263//250 
s off
f 250//237 249//236 264//251 265//252 
f 246//233 253//240 266//253 263//250 
f 256//243 250//237 265//252 267//254 
f 258//245 256//243 267//254 268//255 
f 260//247 258//245 268//255 269//256 
f 270//257 262//249 260//247 269//256 
f 196//192 205//201 117//113 116//112 245//232 
f 263//250 118//114 23//23 178//174 
f 251//238 121//117 120//116 271//258 
f 272//259 124//120 123//119 266//253 
f 245//232 116//112 125//121 254//241 
f 247//234 127//123 126//122 248//235 
f 265//252 273//260 129//125 128//124 267//254 
f 255//242 131//127 127//123 247//234 
f 267//254 128//124 132//128 268//255 
f 257//244 133//129 131//127 255//242 
f 268//255 132//128 134//130 269//256 
f 259//246 135//131 133//129 257//244 
f 274//261 138//134 137//133 261//248 
f 269//256 134//130 139//135 270//257 
f 261//248 137//133 135//131 259//246 
f 275//262 141//137 138//134 274//261 
f 254//241 253//240 246//233 245//232 
f 266//253 253//240 252//239 272//259 
f 266//253 123//119 118//114 263//250 
f 254//241 125//121 121//117 251//238 
f 185//181 276//263 277//264 186//182 
f 187//183 278//265 279//266 188//184 
f 186//182 277//264 278//265 187//183 
f 201//197 280//267 281//268 202//198 
f 202//198 281//268 282//269 203//199 
f 188//184 279//266 283//270 204//200 
f 204//200 283//270 280//267 201//197 
f 206//202 284//271 276//263 185//181 
f 219//215 285//272 286//273 220//216 
f 221//217 287//274 288//275 222//218 
f 222//218 288//275 285//272 219//215 
f 232//228 289//276 290//277 233//229 
f 203//199 282//269 289//276 232//228 
f 234//230 291//278 287//274 221//217 
f 233//229 290//277 291//278 234//230 
f 220//216 286//273 284//271 206//202 
f 277//264 276//263 292//279 293//280 
f 278//265 277//264 293//280 279//266 
f 276//263 284//271 294//281 292//279 
f 286//273 285//272 295//282 296//283 
f 285//272 288//275 287//274 295//282 
f 284//271 286//273 296//283 294//281 
f 281//268 280//267 293//280 292//279 
f 282//269 281//268 292//279 294//281 
f 280//267 283//270 279//266 293//280 
f 290//277 289//276 296//283 295//282 
f 289//276 282//269 294//281 296//283 
f 291//278 290//277 295//282 287//274 
f 261//248 262//249 274//261 
f 262//249 270//257 297//284 274//261 
f 270//257 139//135 164//160 297//284 
f 274//261 297//284 275//262 
f 297//284 164//160 141//137 275//262 
f 298//285 299//286 272//259 252//239 
f 271//258 298//285 252//239 251//238 
f 271//258 120//116 167//163 264//251 
f 299//286 168//164 124//120 272//259 
f 249//236 248//235 299//286 298//285 
f 264//251 249//236 298//285 271//258 
f 248//235 126//122 168//164 299//286 
f 264//251 167//163 169//165 273//260 265//252 
s 1
f 300//287 301//288 302//289 
s off
f 303//290 304//291 301//288 300//287 
s 1
f 305//292 306//293 307//294 308//295 
s off
f 309//296 310//297 300//287 308//295 
f 311//298 312//299 310//297 309//296 
f 313//300 314//301 315//302 316//303 
f 317//304 318//305 314//301 313//300 
f 319//306 320//307 318//305 317//304 
f 321//308 322//309 320//307 319//306 
f 323//310 324//311 322//309 321//308 
f 308//295 307//294 325//312 326//313 
f 302//289 301//288 327//314 328//315 
f 329//316 304//291 330//317 331//318 
f 303//290 300//287 332//319 333//320 
f 300//287 310//297 334//321 332//319 
f 309//296 308//295 326//313 335//322 
f 310//297 312//299 336//323 334//321 
f 311//298 309//296 335//322 337//324 
f 312//299 315//302 338//325 336//323 
f 313//300 316//303 339//326 340//327 
f 314//301 318//305 341//328 342//329 
f 317//304 313//300 340//327 343//330 
f 318//305 320//307 344//331 341//328 
f 319//306 317//304 343//330 345//332 
f 320//307 322//309 346//333 344//331 
f 321//308 319//306 345//332 347//334 
f 322//309 324//311 348//335 
f 323//310 321//308 347//334 349//336 
f 350//337 351//338 326//313 325//312 
f 337//324 335//322 326//313 351//338 
f 352//339 353//340 354//341 
f 340//327 339//326 354//341 353//340 
f 343//330 340//327 353//340 355//342 
f 315//302 312//299 311//298 316//303 
f 315//302 314//301 342//329 338//325 
f 316//303 311//298 337//324 339//326 
f 339//326 337//324 351//338 354//341 
f 354//341 351//338 350//337 352//339 
f 356//343 345//332 343//330 355//342 
f 357//344 347//334 345//332 356//343 
f 358//345 349//336 347//334 357//344 
f 348//335 324//311 323//310 349//336 
f 348//335 349//336 358//345 359//346 
f 360//347 361//348 348//335 359//346 
f 362//349 333//320 332//319 334//321 
f 362//349 334//321 336//323 363//350 
f 363//350 336//323 338//325 364//351 
f 364//351 338//325 342//329 365//352 
f 365//352 342//329 341//328 366//353 
f 366//353 341//328 344//331 367//354 
f 367//354 344//331 346//333 368//355 
f 368//355 346//333 369//356 370//357 
f 348//335 369//356 346//333 322//309 
f 348//335 361//348 370//357 369//356 
f 327//314 301//288 304//291 329//316 
f 371//358 372//359 373//360 374//361 
f 375//362 374//361 373//360 376//363 
f 377//364 328//315 375//362 
f 327//314 329//316 371//358 374//361 
f 329//316 331//318 372//359 371//358 
f 307//294 378//365 379//366 380//367 
f 304//291 303//290 381//368 330//317 
f 325//312 307//294 380//367 382//369 
f 303//290 333//320 383//370 381//368 
f 350//337 325//312 382//369 384//371 
f 353//340 352//339 385//372 386//373 
f 352//339 350//337 384//371 385//372 
f 355//342 353//340 386//373 387//374 
f 356//343 355//342 387//374 388//375 
f 357//344 356//343 388//375 389//376 
f 358//345 357//344 389//376 390//377 
f 359//346 358//345 390//377 391//378 
f 333//320 362//349 392//379 383//370 
f 362//349 363//350 393//380 392//379 
f 363//350 364//351 394//381 393//380 
f 364//351 365//352 395//382 394//381 
f 365//352 366//353 396//383 395//382 
f 366//353 367//354 397//384 396//383 
f 367//354 368//355 398//385 397//384 
f 368//355 370//357 399//386 398//385 
f 370//357 361//348 360//347 400//387 
f 399//386 370//357 400//387 401//388 
f 306//293 305//292 402//389 403//390 
s 1
f 306//293 378//365 307//294 
s off
f 328//315 377//364 305//292 302//289 
s 1
f 302//289 305//292 308//295 300//287 
s off
f 328//315 327//314 374//361 375//362 
f 402//389 305//292 377//364 404//391 
f 404//391 377//364 375//362 376//363 
f 379//366 378//365 306//293 403//390 
s 1
f 405//392 406//393 407//394 
s off
f 408//395 405//392 407//394 409//396 
s 1
f 410//397 411//398 412//399 413//400 
s off
f 414//401 411//398 405//392 415//402 
f 416//403 414//401 415//402 417//404 
f 418//405 419//406 420//407 421//408 
f 422//409 418//405 421//408 423//410 
f 424//411 422//409 423//410 425//412 
f 426//413 424//411 425//412 427//414 
f 428//415 426//413 427//414 429//416 
f 411//398 430//417 431//418 412//399 
f 406//393 432//419 433//420 407//394 
f 434//421 331//318 330//317 409//396 
f 408//395 435//422 436//423 405//392 
f 405//392 436//423 437//424 415//402 
f 414//401 438//425 430//417 411//398 
f 415//402 437//424 439//426 417//404 
f 416//403 440//427 438//425 414//401 
f 417//404 439//426 441//428 420//407 
f 418//405 442//429 443//430 419//406 
f 421//408 444//431 445//432 423//410 
f 422//409 446//433 442//429 418//405 
f 423//410 445//432 447//434 425//412 
f 424//411 448//435 446//433 422//409 
f 425//412 447//434 449//436 427//414 
f 426//413 450//437 448//435 424//411 
f 427//414 451//438 429//416 
f 428//415 452//439 450//437 426//413 
f 453//440 431//418 430//417 454//441 
f 440//427 454//441 430//417 438//425 
f 455//442 456//443 457//444 
f 442//429 457//444 456//443 443//430 
f 446//433 458//445 457//444 442//429 
f 420//407 419//406 416//403 417//404 
f 420//407 441//428 444//431 421//408 
f 419//406 443//430 440//427 416//403 
f 443//430 456//443 454//441 440//427 
f 456//443 455//442 453//440 454//441 
f 459//446 458//445 446//433 448//435 
f 460//447 459//446 448//435 450//437 
f 461//448 460//447 450//437 452//439 
f 451//438 452//439 428//415 429//416 
f 451//438 462//449 461//448 452//439 
f 463//450 462//449 451//438 464//451 
f 465//452 437//424 436//423 435//422 
f 465//452 466//453 439//426 437//424 
f 466//453 467//454 441//428 439//426 
f 467//454 468//455 444//431 441//428 
f 468//455 469//456 445//432 444//431 
f 469//456 470//457 447//434 445//432 
f 470//457 471//458 449//436 447//434 
f 471//458 472//459 473//460 449//436 
f 451//438 427//414 449//436 473//460 
f 451//438 473//460 472//459 464//451 
f 433//420 434//421 409//396 407//394 
f 474//461 475//462 373//360 372//359 
f 476//463 376//363 373//360 475//462 
f 477//464 476//463 432//419 
f 433//420 475//462 474//461 434//421 
f 434//421 474//461 372//359 331//318 
f 412//399 380//367 379//366 478//465 
f 409//396 330//317 381//368 408//395 
f 431//418 382//369 380//367 412//399 
f 408//395 381//368 383//370 435//422 
f 453//440 384//371 382//369 431//418 
f 457//444 386//373 385//372 455//442 
f 455//442 385//372 384//371 453//440 
f 458//445 387//374 386//373 457//444 
f 459//446 388//375 387//374 458//445 
f 460//447 389//376 388//375 459//446 
f 461//448 390//377 389//376 460//447 
f 462//449 391//378 390//377 461//448 
f 435//422 383//370 392//379 465//452 
f 465//452 392//379 393//380 466//453 
f 466//453 393//380 394//381 467//454 
f 467//454 394//381 395//382 468//455 
f 468//455 395//382 396//383 469//456 
f 469//456 396//383 397//384 470//457 
f 470//457 397//384 398//385 471//458 
f 471//458 398//385 399//386 472//459 
f 472//459 479//466 463//450 464//451 
f 399//386 401//388 479//466 472//459 
f 413//400 403//390 402//389 410//397 
s 1
f 413//400 412//399 478//465 
s off
f 432//419 406//393 410//397 477//464 
s 1
f 406//393 405//392 411//398 410//397 
s off
f 432//419 476//463 475//462 433//420 
f 402//389 404//391 477//464 410//397 
f 404//391 376//363 476//463 477//464 
f 379//366 403//390 413//400 478//465 
f 480//467 481//468 482//469 
f 483//470 480//467 482//469 484//471 
f 485//472 483//470 484//471 486//473 
f 487//474 485//472 486//473 488//475 
f 489//476 487//474 488//475 490//477 
f 491//478 489//476 490//477 492//479 
f 482//469 481//468 493//480 494//481 
f 484//471 482//469 494//481 495//482 
f 486//473 484//471 495//482 496//483 
f 488//475 486//473 496//483 497//484 
f 490//477 488//475 497//484 498//485 
f 492//479 490//477 498//485 499//486 
f 491//478 492//479 500//487 501//488 
f 492//479 499//486 502//489 500//487 
f 493//480 481//468 480//467 503//490 
f 503//490 480//467 483//470 504//491 
f 504//491 483//470 485//472 505//492 
f 505//492 485//472 487//474 506//493 
f 506//493 487//474 489//476 507//494 
f 507//494 489//476 491//478 508//495 
f 508//495 491//478 501//488 509//496 
f 510//497 511//498 512//499 
f 513//500 514//501 511//498 510//497 
f 515//502 516//503 514//501 513//500 
f 517//504 518//505 516//503 515//502 
f 519//506 520//507 518//505 517//504 
f 521//508 522//509 520//507 519//506 
f 511//498 494//481 493//480 512//499 
f 514//501 495//482 494//481 511//498 
f 516//503 496//483 495//482 514//501 
f 518//505 497//484 496//483 516//503 
f 520//507 498//485 497//484 518//505 
f 522//509 499//486 498//485 520//507 
f 521//508 523//510 524//511 522//509 
f 522//509 524//511 502//489 499//486 
f 493//480 503//490 510//497 512//499 
f 503//490 504//491 513//500 510//497 
f 504//491 505//492 515//502 513//500 
f 505//492 506//493 517//504 515//502 
f 506//493 507//494 519//506 517//504 
f 507//494 508//495 521//508 519//506 
f 508//495 509//496 523//510 521//508 
# 484 polygons - 16 triangles

